<?xml version="1.0" encoding="utf-8"?>
<!-- Generator: Adobe Illustrator 25.3.1, SVG Export Plug-In . SVG Version: 6.00 Build 0)  -->
<svg version="1.1" id="Capa_1" xmlns="http://www.w3.org/2000/svg" xmlns:xlink="http://www.w3.org/1999/xlink" x="0px" y="0px"
	 viewBox="0 0 1080 450" style="enable-background:new 0 0 1080 450;" xml:space="preserve">
<style type="text/css">
	.st0{fill:#C7E8C0;}
	.st1{fill:#A0D695;}
	.st2{fill:#78C369;}
	.st3{fill:#484F58;}
</style>
<g>
	<g>
		<polygon class="st0" points="60.6,79.2 202.8,221.4 61.7,362.5 		"/>
	</g>
	<g>
		<polyline class="st1" points="66.9,76.1 354.4,220.9 260.6,269.8 68.4,77.6 		"/>
	</g>
	<g>
		<polyline class="st2" points="207.4,226.1 255.1,272.2 66.9,366.5 207.4,226 		"/>
	</g>
	<g>
		<path class="st3" d="M453.3,93.7h33c15.1,0,24.6,1.8,32.2,6.3c9.3,5.6,14.6,15.1,14.6,26.2c0,13.9-8.3,24.1-21.6,27.9v0.4
			c16.2,2.8,26.7,14.1,26.7,30.9c0,11.6-5.1,21.1-13.7,27.2c-7.9,5.6-17.8,8.3-38.3,8.3h-32.9V93.7z M493.4,151.2
			c16,0,29-7.9,29-23.7c0-8.6-3.9-14.9-10.5-19c-5.8-3.5-12.8-4.9-26.5-4.9H464v47.6H493.4z M486.9,211.1c17.4,0,25.5-2.3,31.3-6.5
			c4.7-3.5,9.3-9.8,9.3-19.2c0-15.8-13-25.3-33-25.3H464v51H486.9z"/>
		<path class="st3" d="M597.6,103.5h-43.8v-9.8h98.2v9.8h-43.8v117.4h-10.7V103.5z"/>
		<path class="st3" d="M764.6,213.7c-10,6-22.8,9.1-36.2,9.1c-39.2,0-66.4-28.5-66.4-65.4c0-36.2,26.2-65.7,66.3-65.7
			c12.8,0,24.3,3.2,34.1,8.1v12c-9.3-6.2-21.3-10-34.1-10c-33.2,0-55.5,24.4-55.5,55.5s22.3,55.5,56.2,55.5c13.4,0,25.7-4,35.7-11.1
			V213.7z"/>
	</g>
	<g>
		<path class="st3" d="M453.3,244.7h33.2c16.3,0,27.9,1.9,37.3,8.1c9.3,6.2,15.5,15.6,15.5,28.8c0,12.8-5.8,22.8-14.9,29
			c-9.5,6.5-22.3,8.3-39.7,8.3H464v53.1h-10.7V244.7z M485.8,309.4c18.1,0,25.8-2.3,32.2-6.7c6.5-4.6,10.4-11.6,10.4-20.7
			c0-10-4.4-16.9-11.2-21.3c-7.4-4.7-16.5-6.2-31.3-6.2H464v54.8H485.8z"/>
		<path class="st3" d="M594.6,244.7h10.2l53.3,127.2h-11.6l-15.6-38h-62.4l-15.6,38h-11.1L594.6,244.7z M613.9,292.7
			c-4.7-11.6-9.5-23.4-14.1-35h-0.4c-4.4,11.1-8.8,22-14.1,34.8l-13,31.6h54.3L613.9,292.7z"/>
		<path class="st3" d="M771.8,361.9c-11.1,7.2-26.5,12-42.2,12c-38,0-65.6-28.3-65.6-65.4c0-36.9,26.9-65.7,66.6-65.7
			c14.8,0,27.4,4,37.4,9.8v12.3c-9.8-7.2-23-12.1-37.8-12.1c-33.4,0-55.5,24.6-55.5,55.5c0,30.6,21.6,55.7,55.7,55.7
			c11.4,0,22.3-2.8,30.6-7.6v-35.7h-32.3V311h43.1V361.9z"/>
		<path class="st3" d="M857.3,242.8c36.6,0,64.1,28.8,64.1,65.6c0,36.7-27.6,65.6-64.1,65.6c-36.6,0-64.1-28.8-64.1-65.6
			C793.2,271.6,820.8,242.8,857.3,242.8z M857.3,363.9c30.9,0,53.4-24.6,53.4-55.5c0-30.9-22.5-55.5-53.4-55.5s-53.4,24.6-53.4,55.5
			C803.9,339.3,826.4,363.9,857.3,363.9z"/>
		<path class="st3" d="M941.5,351c11.2,9,25.8,12.8,37.6,12.8c17,0,29.5-8.3,29.5-24.8c0-18.8-16.3-22.8-32.9-27.4
			c-18.3-5.1-36.2-11.8-36.2-34.8c0-21.8,15.8-34.1,38.8-34.1c11.9,0,25.8,3.3,35.7,10v11.6c-10.7-7.7-24.4-11.6-35.9-11.6
			c-16.5,0-27.9,7.9-27.9,23.4c0,18.1,16,21.8,31.8,26.2c18.1,5.1,37.3,11.8,37.3,36.2c0,22.3-16.3,35.3-40.2,35.3
			c-12.7,0-27.2-3.7-37.6-10.7V351z"/>
	</g>
	<g>
		<rect x="400.6" y="91.7" class="st3" width="3.1" height="281.1"/>
	</g>
</g>
</svg>
